<?xml version="1.0" standalone="no"?>
<!DOCTYPE svg PUBLIC "-//W3C//DTD SVG 20010904//EN"
 "http://www.w3.org/TR/2001/REC-SVG-20010904/DTD/svg10.dtd">
<svg version="1.0" xmlns="http://www.w3.org/2000/svg"
 width="1024.000000pt" height="1536.000000pt" viewBox="0 0 1024.000000 1536.000000"
 preserveAspectRatio="xMidYMid meet">

<g transform="translate(0.000000,1536.000000) scale(0.100000,-0.100000)"
fill="#000000" stroke="none">
<path d="M5051 13795 c-140 -32 -211 -88 -211 -167 0 -42 13 -38 -165 -58
-568 -66 -1174 -275 -1593 -550 -554 -363 -862 -832 -976 -1482 -60 -341 -77
-625 -76 -1292 0 -269 -1 -489 -2 -490 -45 -18 -179 -96 -266 -153 -267 -176
-462 -381 -493 -520 -25 -111 26 -212 117 -229 58 -11 328 45 663 136 41 11
79 20 85 20 8 0 11 -119 12 -383 2 -649 56 -1104 188 -1583 95 -343 253 -720
410 -977 26 -43 46 -80 44 -81 -75 -56 -154 -125 -185 -163 -117 -141 -162
-248 -171 -403 l-5 -104 -61 -71 c-76 -86 -116 -156 -152 -260 -22 -67 -27
-98 -28 -190 0 -60 2 -116 4 -123 4 -9 -39 -32 -135 -71 -333 -136 -589 -299
-815 -518 -183 -176 -278 -310 -405 -568 -168 -340 -308 -804 -405 -1339 -33
-188 -36 -241 -16 -290 23 -54 62 -82 251 -176 519 -258 1299 -494 2095 -634
1037 -183 2222 -238 3445 -161 1114 71 2084 249 3010 552 324 106 793 304 917
387 96 64 103 93 77 320 -77 671 -231 1260 -424 1623 -192 362 -494 651 -834
799 l-74 32 2 114 c7 334 -91 633 -269 823 l-57 60 -11 175 c-13 204 -34 299
-93 420 -93 188 -277 314 -561 384 -73 19 -158 37 -187 41 -43 6 -51 10 -45
24 5 13 47 149 60 198 1 6 23 20 47 31 77 34 185 112 260 187 259 260 448 725
507 1250 32 287 -17 487 -149 607 l-58 53 -7 136 -7 135 30 38 c17 21 33 53
37 71 3 18 4 419 1 891 -3 716 -7 884 -21 1009 -47 420 -137 739 -282 1001
-379 680 -1263 1173 -2319 1295 -93 10 -173 19 -177 19 -5 0 -8 13 -8 29 0 78
-48 133 -140 162 -87 27 -289 35 -379 14z m275 -773 c6 -4 13 -41 16 -82 11
-169 124 -294 286 -315 l52 -7 0 -125 0 -126 -74 5 c-87 6 -150 33 -213 93
l-43 42 0 -181 c-1 -100 -5 -249 -9 -331 -8 -129 -13 -161 -37 -223 -71 -181
-210 -282 -434 -314 -142 -21 -318 36 -400 129 -160 182 -156 482 10 657 90
96 259 162 363 142 l37 -7 0 -103 0 -103 -69 -5 c-113 -8 -183 -70 -211 -186
-38 -160 59 -292 212 -292 70 1 125 27 175 84 78 88 76 72 81 691 3 401 7 552
15 557 15 10 229 10 243 0z m-556 -2136 l0 -346 -55 0 -55 0 0 32 0 32 -27
-26 c-42 -39 -72 -51 -128 -51 -57 0 -97 18 -137 60 -44 46 -60 97 -59 191 0
71 4 93 26 139 51 104 160 148 259 105 25 -12 46 -26 46 -31 0 -6 4 -11 8 -11
5 0 6 49 4 110 -2 60 -2 116 1 123 3 9 25 14 61 16 l56 2 0 -345z m1052 297
c40 -36 9 -123 -45 -123 -41 0 -67 27 -67 70 0 29 6 43 22 54 29 21 67 20 90
-1z m-678 -153 c4 -5 1 -31 -9 -59 -16 -48 -18 -50 -57 -53 -31 -2 -46 -10
-62 -31 -19 -26 -21 -44 -24 -188 l-3 -159 -60 0 -59 0 0 250 0 250 60 0 60 0
0 -37 0 -38 26 33 c15 19 36 37 48 42 22 9 65 3 80 -10z m334 -5 c80 -34 132
-119 132 -217 l0 -58 -169 0 -169 0 8 -36 c5 -20 21 -49 36 -65 22 -24 36 -29
72 -29 40 0 50 5 83 40 39 41 52 45 107 34 l31 -6 -15 -37 c-22 -54 -79 -107
-130 -121 -110 -31 -225 13 -273 105 -23 44 -26 62 -26 145 0 105 16 149 72
202 59 56 164 75 241 43z m-1307 -30 c43 -39 49 -72 49 -280 l0 -195 -60 0
-60 0 0 166 c0 200 -8 224 -76 224 -42 0 -81 -33 -94 -78 -5 -20 -10 -101 -10
-179 l0 -143 -57 0 -58 0 3 244 3 244 54 4 c55 3 55 3 55 -26 l0 -29 23 20
c45 42 79 53 144 50 44 -2 68 -9 84 -22z m1652 -242 c-3 -137 -6 -248 -7 -248
0 -1 -27 1 -58 3 l-58 4 0 122 c0 68 3 178 7 244 l6 122 58 0 58 0 -6 -247z
m-2194 219 c71 -36 75 -51 81 -270 3 -108 5 -198 5 -198 0 -1 -24 -4 -52 -8
-50 -6 -53 -6 -59 19 -6 26 -7 26 -28 7 -35 -32 -62 -42 -116 -42 -78 0 -117
21 -141 76 -24 52 -20 99 12 150 24 40 65 59 154 75 39 6 80 15 93 20 27 10
29 39 4 69 -33 41 -131 22 -147 -29 -5 -18 -42 -31 -91 -31 -31 0 -32 32 -1
82 42 69 95 96 192 97 39 1 72 -5 94 -17z m2435 -16 c10 -11 32 -47 48 -80
l30 -58 44 66 c44 66 45 66 92 66 80 0 80 -7 1 -115 l-73 -98 45 -81 c84 -156
104 -195 99 -198 -3 -2 -30 -2 -60 0 l-55 4 -50 94 c-28 52 -52 94 -55 93 -3
0 -30 -36 -60 -80 l-55 -80 -44 5 c-24 3 -52 6 -63 6 -17 0 -15 5 13 48 18 26
58 81 90 123 l57 75 -64 115 c-35 63 -64 117 -64 121 0 4 24 5 53 1 36 -3 58
-12 71 -27z m443 -31 c7 -2 31 -41 53 -86 l41 -81 25 33 c14 19 35 49 46 68
21 33 22 33 80 28 33 -3 62 -8 65 -11 5 -5 -59 -93 -123 -169 l-32 -39 30 -51
c16 -28 49 -90 74 -139 l44 -87 -28 4 c-15 2 -43 7 -64 10 -34 5 -39 11 -81
91 l-44 86 -53 -72 -54 -72 -55 6 c-62 7 -68 10 -54 28 5 7 42 57 82 110 l73
98 -66 119 c-36 65 -66 124 -66 130 0 11 67 8 107 -4z m-1995 -1580 c417 -35
694 -89 1118 -215 162 -49 381 -100 427 -100 13 0 23 -4 23 -10 0 -5 -10 -10
-22 -10 -12 0 -159 -32 -327 -71 -278 -64 -661 -143 -801 -166 l-55 -9 -36 38
c-27 28 -44 38 -67 38 -40 0 -40 -9 2 -97 66 -137 201 -237 336 -249 49 -5 97
0 192 20 70 14 131 26 136 26 5 0 13 -27 16 -61 9 -79 41 -182 72 -231 30 -47
93 -94 148 -110 64 -18 177 -13 234 12 94 41 156 131 168 247 l7 58 175 2
c223 3 329 29 276 68 -45 32 -237 58 -639 85 -87 6 -160 12 -161 13 -2 1 61
17 139 36 78 18 279 67 447 108 l305 76 48 -17 c74 -26 198 -57 215 -54 10 2
-2 16 -33 41 l-48 37 79 0 c49 0 106 8 149 20 38 11 76 20 82 20 18 0 17 -200
-2 -315 -22 -138 -41 -202 -90 -304 -35 -72 -62 -110 -118 -168 -121 -125
-324 -250 -503 -308 -156 -51 -224 -60 -449 -60 -297 1 -385 19 -839 170 -384
128 -420 136 -621 142 l-170 5 -1 37 c-1 20 -5 201 -9 404 l-7 367 -34 0 c-36
0 -74 -31 -74 -62 0 -20 -3 -20 -160 14 -94 20 -215 53 -605 168 -247 73 -384
107 -457 116 -46 5 -64 3 -101 -15 -63 -31 -184 -159 -193 -205 -8 -47 1 -70
24 -61 9 4 41 12 69 18 73 15 175 -9 546 -132 351 -116 358 -109 -92 -111
-312 -1 -343 -5 -349 -47 -7 -47 44 -61 262 -71 l140 -7 12 -70 c15 -87 27
-118 64 -165 41 -51 116 -83 200 -83 175 -1 297 110 325 296 4 26 12 47 19 47
6 0 47 -7 91 -15 44 -8 102 -14 129 -15 l49 0 -7 -127 c-3 -71 -9 -171 -13
-224 l-6 -96 -56 -13 c-31 -7 -144 -41 -251 -75 -280 -90 -328 -100 -500 -99
-171 0 -232 13 -362 80 -150 78 -276 213 -339 365 -39 95 -74 253 -89 399 -11
108 -11 472 0 483 9 9 311 76 460 102 205 36 563 83 705 94 204 14 600 12 797
-4z m3348 -3529 c0 -2 -8 -10 -17 -17 -16 -13 -17 -12 -4 4 13 16 21 21 21 13z
m-4990 -29 c0 -2 -12 -14 -27 -28 l-28 -24 24 28 c23 25 31 32 31 24z m4960
-10 c0 -2 -10 -12 -22 -23 l-23 -19 19 23 c18 21 26 27 26 19z m-4835 -57 c10
-11 16 -20 13 -20 -3 0 -13 9 -23 20 -10 11 -16 20 -13 20 3 0 13 -9 23 -20z
m-206 -7 c-8 -10 -30 -36 -48 -57 -19 -22 -45 -63 -58 -90 -13 -28 -20 -40
-17 -26 4 14 12 37 20 51 15 30 102 139 111 139 3 0 0 -8 -8 -17z m4972 -21
c-17 -21 -52 -55 -78 -77 -83 -70 -100 -80 -33 -19 36 33 80 76 99 97 44 48
51 48 12 -1z m-4774 -144 c-3 -8 -6 -5 -6 6 -1 11 2 17 5 13 3 -3 4 -12 1 -19z
m4578 -26 c-11 -11 -105 -81 -210 -157 -104 -76 -223 -163 -265 -193 -41 -30
-69 -49 -62 -41 14 15 544 407 552 408 2 1 -4 -7 -15 -17z m-4908 -64 c-2 -13
-4 -5 -4 17 -1 22 1 32 4 23 2 -10 2 -28 0 -40z m320 10 c-3 -8 -6 -5 -6 6 -1
11 2 17 5 13 3 -3 4 -12 1 -19z m42 -222 c12 -33 19 -61 17 -64 -10 -9 -56
162 -55 201 1 38 2 36 10 -18 4 -33 17 -87 28 -119z m-362 97 c-2 -16 -4 -5
-4 22 0 28 2 40 4 28 2 -13 2 -35 0 -50z m16 -88 c4 -34 3 -42 -3 -25 -8 25
-13 87 -6 79 2 -2 6 -26 9 -54z m391 -122 c9 -18 14 -33 12 -33 -6 0 -36 55
-36 66 0 11 5 3 24 -33z m-461 -112 c9 -11 9 -13 0 -8 -15 10 -72 115 -65 121
3 3 16 -18 29 -46 13 -29 29 -59 36 -67z m199 -95 c38 -76 67 -140 65 -142 -5
-5 -154 306 -161 336 -3 14 2 7 11 -15 10 -22 48 -102 85 -179z m4179 166
c-19 -15 -121 -96 -225 -181 -105 -85 -210 -170 -233 -189 -24 -19 -43 -32
-43 -29 0 3 44 40 97 83 342 277 427 344 432 344 3 -1 -10 -13 -28 -28z
m-4476 -13 c-33 -40 -63 -98 -87 -169 -13 -38 -17 -44 -13 -20 10 65 96 220
122 220 3 0 -7 -14 -22 -31z m654 -103 c100 -152 383 -467 770 -859 97 -98
176 -180 176 -181 0 -2 -114 112 -254 253 -427 432 -661 700 -745 856 -30 56
-25 49 53 -69z m-439 -107 c0 -4 26 -26 58 -50 65 -49 85 -66 62 -54 -47 25
-123 93 -165 148 l-47 62 46 -50 c25 -27 45 -53 46 -56z m-323 -56 c-3 -10 -5
-4 -5 12 0 17 2 24 5 18 2 -7 2 -21 0 -30z m0 -95 c-3 -8 -6 -5 -6 6 -1 11 2
17 5 13 3 -3 4 -12 1 -19z m28 -48 c9 -16 13 -30 11 -30 -3 0 -12 14 -21 30
-9 17 -13 30 -11 30 3 0 12 -13 21 -30z m5705 15 c-14 -8 -29 -14 -35 -14 -5
0 1 6 15 14 14 8 30 14 35 14 6 0 -1 -6 -15 -14z m-1665 -5 c-3 -5 -20 -19
-38 -30 -32 -22 -32 -22 3 9 37 32 45 37 35 21z m1575 -35 c-14 -8 -29 -14
-35 -14 -5 0 1 6 15 14 14 8 30 14 35 14 6 0 -1 -6 -15 -14z m-5570 -45 c12
-16 19 -30 16 -30 -2 0 -14 14 -26 30 -12 17 -19 30 -16 30 2 0 14 -13 26 -30z
m3920 26 c0 -6 -93 -74 -217 -160 -62 -43 -113 -75 -113 -72 0 3 55 43 123 90
67 46 140 98 162 115 41 31 45 34 45 27z m1599 0 c-2 -2 -15 -9 -29 -15 -24
-11 -24 -11 -6 3 16 13 49 24 35 12z m-60 -30 c-10 -9 -229 -116 -229 -111 0
6 211 114 224 114 5 1 7 -1 5 -3z m-5290 -195 c57 -56 68 -70 33 -42 -57 47
-158 154 -174 186 -6 11 5 2 22 -20 18 -22 72 -78 119 -124z m-345 81 c2 -4
-3 -8 -12 -8 -9 -1 -43 -13 -74 -27 -32 -15 -58 -25 -58 -22 0 5 119 62 132
64 4 1 9 -3 12 -7z m5396 -8 c0 -6 -524 -264 -536 -264 -6 1 511 261 534 269
1 1 2 -2 2 -5z m-5064 -316 c44 -32 124 -84 178 -117 112 -68 139 -90 51 -41
-196 110 -398 271 -519 415 -22 27 15 -7 84 -75 69 -69 161 -151 206 -182z
m-506 247 c0 -6 -56 -35 -67 -35 -4 1 8 9 27 20 39 22 40 22 40 15z m3930 -20
c0 -2 -46 -36 -102 -74 -57 -38 -130 -88 -163 -111 -33 -22 -45 -29 -26 -13
29 24 281 201 289 203 1 0 2 -2 2 -5z m-4010 -19 c0 -2 -48 -30 -107 -61 -296
-156 -651 -440 -764 -609 -22 -33 -81 -142 -130 -241 -49 -99 -89 -175 -89
-170 0 15 136 291 177 360 61 101 118 166 230 266 196 172 370 295 573 403
110 59 110 58 110 52z m4530 -106 c-74 -38 -139 -69 -145 -69 -5 0 51 31 125
69 74 38 140 69 145 69 6 0 -51 -31 -125 -69z m-3720 -27 c0 -8 -55 28 -90 59
-24 20 -15 16 28 -13 34 -23 62 -44 62 -46z m3850 62 c0 -2 -10 -9 -22 -15
-22 -11 -22 -10 -4 4 21 17 26 19 26 11z m-60 -38 c-23 -21 -217 -152 -203
-137 12 13 205 149 213 150 2 0 -2 -6 -10 -13z m-3740 -53 c0 -2 -9 0 -20 6
-11 6 -20 13 -20 16 0 2 9 0 20 -6 11 -6 20 -13 20 -16z m4210 -14 c-19 -11
-39 -19 -45 -19 -5 0 6 8 25 19 19 11 40 19 45 19 6 0 -6 -8 -25 -19z m-4140
-26 c0 -2 -13 2 -30 11 -16 9 -30 18 -30 21 0 2 14 -2 30 -11 17 -9 30 -18 30
-21z m3415 6 c-3 -5 -12 -10 -18 -10 -7 0 -6 4 3 10 19 12 23 12 15 0z m645
-15 c-14 -8 -29 -14 -35 -14 -5 0 1 6 15 14 14 8 30 14 35 14 6 0 -1 -6 -15
-14z m-3715 -164 c-5 -4 -335 156 -335 163 0 2 76 -32 169 -77 93 -45 168 -84
166 -86z m2400 160 c-6 -4 -35 -26 -65 -47 -139 -100 -190 -135 -190 -130 0 5
252 186 260 186 2 0 0 -4 -5 -9z m1255 -21 c-8 -5 -19 -10 -25 -10 -5 0 -3 5
5 10 8 5 20 10 25 10 6 0 3 -5 -5 -10z m-60 -24 c-14 -7 -36 -16 -50 -20 -14
-3 -7 3 15 13 45 22 73 27 35 7z m-720 -30 c0 -2 -7 -7 -16 -10 -8 -3 -12 -2
-9 4 6 10 25 14 25 6z m630 -6 c-8 -5 -19 -10 -25 -10 -5 0 -3 5 5 10 8 5 20
10 25 10 6 0 3 -5 -5 -10z m-460 -5 c0 -4 -98 -72 -130 -90 -30 -17 1 9 62 51
68 46 68 46 68 39z m-2920 -30 c13 -14 21 -25 18 -25 -2 0 -15 11 -28 25 -13
14 -21 25 -18 25 2 0 15 -11 28 -25z m2710 21 c0 -2 -53 -32 -117 -66 -65 -34
-138 -74 -163 -88 -25 -14 -40 -20 -35 -14 8 9 304 172 313 172 1 0 2 -2 2 -4z
m620 -5 c-8 -5 -26 -11 -40 -15 -21 -5 -20 -3 5 9 32 15 60 20 35 6z m-3214
-52 c3 -5 -11 0 -30 12 -20 12 -39 25 -42 30 -3 5 11 0 30 -12 20 -12 39 -25
42 -30z m3144 27 c0 -6 -93 -37 -97 -32 -2 2 15 11 39 19 47 17 58 19 58 13z
m-3315 -57 c22 -10 29 -16 15 -13 -28 7 -80 33 -65 33 6 0 28 -9 50 -20z m125
-14 c19 -19 32 -35 29 -35 -3 0 -20 16 -39 35 -19 19 -32 35 -29 35 3 0 20
-16 39 -35z m-490 -40 c0 -3 -22 6 -50 20 -27 14 -50 28 -50 30 0 3 23 -6 50
-20 28 -14 50 -28 50 -30z m2430 51 c0 -3 -15 -14 -32 -26 l-33 -22 30 26 c31
27 35 29 35 22z m752 -8 c-6 -7 -25 -22 -44 -32 -39 -23 -32 -13 14 20 38 26
45 29 30 12z m-2742 -18 c8 -5 11 -10 5 -10 -5 0 -17 5 -25 10 -8 5 -10 10 -5
10 6 0 17 -5 25 -10z m253 -42 c31 -21 57 -41 57 -43 0 -3 -31 16 -70 41 -38
26 -70 49 -70 51 0 5 12 -2 83 -49z m5131 -61 c-176 -185 -315 -382 -446 -632
-37 -71 -68 -127 -68 -122 0 4 20 48 45 97 120 239 285 476 454 652 51 54 96
98 98 98 3 0 -35 -42 -83 -93z m-5269 57 c22 -16 14 -19 -13 -5 -9 5 -28 14
-42 20 -24 10 -24 10 5 4 17 -3 39 -12 50 -19z m825 -262 c3 -4 -10 7 -28 23
-54 48 -247 245 -250 255 -3 8 264 -259 278 -278z m976 280 c-2 -4 -26 -23
-53 -41 -55 -39 -47 -27 12 18 42 32 49 36 41 23z m-2200 -80 c-5 -4 -146 66
-146 73 0 3 34 -12 75 -32 41 -20 73 -39 71 -41z m3171 72 c-3 -3 -12 -4 -19
-1 -8 3 -5 6 6 6 11 1 17 -2 13 -5z m-257 -19 c0 -2 -10 -9 -22 -15 -22 -11
-22 -10 -4 4 21 17 26 19 26 11z m-290 -20 c0 -2 -10 -9 -22 -15 -22 -11 -22
-10 -4 4 21 17 26 19 26 11z m235 -15 c-3 -5 -12 -10 -18 -10 -7 0 -6 4 3 10
19 12 23 12 15 0z m-2155 -63 c71 -47 115 -81 80 -62 -28 16 -165 108 -175
118 -15 15 9 1 95 -56z m2217 47 c-3 -3 -12 -4 -19 -1 -8 3 -5 6 6 6 11 1 17
-2 13 -5z m-2755 -70 c71 -32 126 -59 124 -61 -4 -4 -209 86 -251 111 -44 25
-16 14 127 -50z m2645 51 c0 -8 -2 -13 -5 -10 -2 2 -19 -3 -36 -12 -35 -18
-29 -8 11 18 16 10 28 18 29 18 0 1 1 -6 1 -14z m-282 -5 c-3 -5 -12 -10 -18
-10 -7 0 -6 4 3 10 19 12 23 12 15 0z m3290 -42 c-131 -109 -276 -297 -385
-500 -23 -43 -44 -78 -47 -78 -20 0 177 315 266 424 48 59 196 196 211 196 3
-1 -17 -19 -45 -42z m-5475 -83 c14 -8 21 -14 15 -14 -5 0 -21 6 -35 14 -14 8
-20 14 -15 14 6 0 21 -6 35 -14z m118 -47 c29 -12 51 -23 48 -25 -5 -5 -136
47 -136 54 0 3 8 2 18 -2 9 -4 41 -16 70 -27z m619 -111 c7 -12 -124 79 -147
101 -8 8 20 -9 63 -38 43 -29 80 -58 84 -63z m-527 73 c8 -5 11 -10 5 -10 -5
0 -17 5 -25 10 -8 5 -10 10 -5 10 6 0 17 -5 25 -10z m808 -185 l-2 -80 -3 82
c-4 77 -5 83 -36 110 -18 16 -41 40 -52 54 -10 13 6 -1 38 -31 l57 -54 -2 -81z
m-640 125 c51 -18 91 -35 89 -37 -5 -4 -198 65 -206 74 -7 7 -9 8 117 -37z
m421 -84 c-1 -20 -1 -20 -6 -1 -3 11 -15 31 -26 45 l-22 25 28 -24 c15 -14 26
-34 26 -45z m850 60 c-10 -9 -89 -46 -89 -41 0 6 72 44 84 45 5 0 7 -2 5 -4z
m-1076 -46 c38 -12 66 -24 64 -26 -5 -5 -148 43 -156 53 -3 3 1 4 9 1 8 -3 46
-15 83 -28z m737 27 c0 -2 -17 -19 -37 -38 l-38 -34 34 38 c33 34 41 42 41 34z
m210 -51 c0 -2 -8 -10 -17 -17 -16 -13 -17 -12 -4 4 13 16 21 21 21 13z m-790
-26 c20 -6 21 -8 5 -8 -11 0 -29 3 -40 8 -25 11 1 11 35 0z m-2735 -14 c-72
-32 -95 -82 -105 -231 l-8 -110 2 111 c2 90 6 118 24 155 22 44 74 89 102 89
8 -1 2 -7 -15 -14z m3242 -8 c-3 -8 -6 -5 -6 6 -1 11 2 17 5 13 3 -3 4 -12 1
-19z m250 -10 c-3 -8 -6 -5 -6 6 -1 11 2 17 5 13 3 -3 4 -12 1 -19z m-3460
-230 c-1 -46 -3 -9 -3 82 0 91 2 128 3 83 2 -46 2 -120 0 -165z m3200 190 c-3
-7 -5 -2 -5 12 0 14 2 19 5 13 2 -7 2 -19 0 -25z m306 15 c-7 -2 -19 -2 -25 0
-7 3 -2 5 12 5 14 0 19 -2 13 -5z m-316 -65 c-3 -7 -5 -2 -5 12 0 14 2 19 5
13 2 -7 2 -19 0 -25z m-210 -85 c-2 -21 -4 -4 -4 37 0 41 2 58 4 38 2 -21 2
-55 0 -75z m200 30 c-3 -10 -5 -4 -5 12 0 17 2 24 5 18 2 -7 2 -21 0 -30z
m-3786 0 c-12 -20 -14 -14 -5 12 4 9 9 14 11 11 3 -2 0 -13 -6 -23z m3774 -78
c-4 -25 -9 -44 -12 -41 -2 2 -1 25 2 51 4 25 9 44 12 41 2 -2 1 -25 -2 -51z
m-3804 -2 c-12 -20 -14 -14 -5 12 4 9 9 14 11 11 3 -2 0 -13 -6 -23z m7637 -8
c-6 -14 -13 -23 -15 -21 -5 5 15 46 22 46 3 0 -1 -11 -7 -25z m-4031 -47 c-2
-13 -4 -3 -4 22 0 25 2 35 4 23 2 -13 2 -33 0 -45z m-3626 1 c-5 -13 -10 -19
-10 -12 -1 15 10 45 15 40 3 -2 0 -15 -5 -28z m7615 -46 c-14 -26 -25 -45 -26
-41 0 12 43 98 48 94 2 -2 -8 -26 -22 -53z m-3809 10 c-3 -10 -5 -4 -5 12 0
17 2 24 5 18 2 -7 2 -21 0 -30z m-3851 -99 c-19 -54 -35 -95 -35 -89 -1 15 60
197 65 192 2 -2 -12 -48 -30 -103z m3661 44 c-2 -13 -4 -3 -4 22 0 25 2 35 4
23 2 -13 2 -33 0 -45z m3781 -53 c-40 -98 -58 -134 -43 -85 13 43 77 191 81
187 2 -1 -15 -48 -38 -102z m-3601 28 c-3 -10 -5 -2 -5 17 0 19 2 27 5 18 2
-10 2 -26 0 -35z m-3130 -190 c-1 -43 -3 -8 -3 77 0 85 2 120 3 78 2 -43 2
-113 0 -155z m6896 139 c-14 -34 -28 -60 -30 -58 -2 2 8 31 23 65 15 34 28 60
30 58 2 -2 -8 -31 -23 -65z m-7056 26 c-3 -7 -5 -2 -5 12 0 14 2 19 5 13 2 -7
2 -19 0 -25z m3100 -30 c-2 -13 -4 -5 -4 17 -1 22 1 32 4 23 2 -10 2 -28 0
-40z m180 -15 c-3 -10 -5 -2 -5 17 0 19 2 27 5 18 2 -10 2 -26 0 -35z m-3280
-230 c-1 -49 -3 -9 -3 87 0 96 2 136 3 88 2 -49 2 -127 0 -175z m3090 155 c-2
-13 -4 -3 -4 22 0 25 2 35 4 23 2 -13 2 -33 0 -45z m180 15 c-3 -10 -5 -4 -5
12 0 17 2 24 5 18 2 -7 2 -21 0 -30z m3727 -71 c-15 -40 -29 -71 -31 -69 -2 3
8 37 23 76 15 39 28 70 30 68 2 -2 -8 -36 -22 -75z m-165 19 c-6 -18 -13 -30
-15 -28 -2 2 1 18 7 36 6 18 13 30 15 28 2 -2 -1 -18 -7 -36z m-7440 -20 c-7
-23 -14 -39 -16 -37 -3 2 1 23 8 45 7 23 14 39 16 37 3 -2 -1 -23 -8 -45z
m3868 -3 c-2 -13 -4 -5 -4 17 -1 22 1 32 4 23 2 -10 2 -28 0 -40z m-180 -35
c-2 -16 -4 -5 -4 22 0 28 2 40 4 28 2 -13 2 -35 0 -50z m3712 -52 c-12 -34
-23 -60 -25 -58 -2 2 6 32 17 66 12 34 23 60 25 58 2 -2 -6 -32 -17 -66z
m-3542 7 c-2 -13 -4 -5 -4 17 -1 22 1 32 4 23 2 -10 2 -28 0 -40z m-3880 10
c-3 -8 -6 -5 -6 6 -1 11 2 17 5 13 3 -3 4 -12 1 -19z m-13 -57 c-4 -17 -9 -30
-11 -27 -3 2 -2 19 2 36 9 41 17 33 9 -9z m3713 -13 c-2 -13 -4 -5 -4 17 -1
22 1 32 4 23 2 -10 2 -28 0 -40z m-2900 -270 c-1 -57 -3 -11 -3 102 0 113 2
159 3 103 2 -57 2 -149 0 -205z m3070 240 c-2 -13 -4 -3 -4 22 0 25 2 35 4 23
2 -13 2 -33 0 -45z m3701 14 c-6 -24 -13 -41 -15 -38 -2 2 1 23 7 46 6 23 13
40 15 38 2 -2 -1 -23 -7 -46z m-7604 -56 c-3 -21 -8 -35 -11 -32 -2 2 -1 20 3
40 3 21 8 35 11 32 2 -2 1 -20 -3 -40z m3723 -28 c-2 -13 -4 -3 -4 22 0 25 2
35 4 23 2 -13 2 -33 0 -45z m170 -20 c-2 -13 -4 -3 -4 22 0 25 2 35 4 23 2
-13 2 -33 0 -45z m3687 18 c-3 -15 -8 -25 -11 -23 -2 3 -1 17 3 31 3 15 8 25
11 23 2 -3 1 -17 -3 -31z m-6927 -403 c-1 -81 -3 -17 -3 142 0 160 2 226 3
148 2 -78 2 -208 0 -290z m6732 348 c-13 -39 -25 -69 -27 -67 -2 3 7 36 19 75
13 39 25 69 27 67 2 -3 -7 -36 -19 -75z m-7410 -20 c-7 -28 -15 -49 -17 -46
-2 2 2 27 9 54 7 28 15 49 17 46 2 -2 -2 -27 -9 -54z m3738 -18 c-2 -16 -4 -5
-4 22 0 28 2 40 4 28 2 -13 2 -35 0 -50z m167 -32 c-3 -40 -9 -70 -11 -67 -3
3 -2 37 2 76 4 39 9 69 12 67 2 -3 1 -37 -3 -76z m3670 25 c-3 -15 -8 -25 -11
-23 -2 3 -1 17 3 31 3 15 8 25 11 23 2 -3 1 -17 -3 -31z m-3847 -88 c-2 -13
-4 -3 -4 22 0 25 2 35 4 23 2 -13 2 -33 0 -45z m-3750 30 c-3 -8 -6 -5 -6 6
-1 11 2 17 5 13 3 -3 4 -12 1 -19z m7397 -12 c-3 -15 -8 -25 -11 -23 -2 3 -1
17 3 31 3 15 8 25 11 23 2 -3 1 -17 -3 -31z m183 12 c-3 -8 -6 -5 -6 6 -1 11
2 17 5 13 3 -3 4 -12 1 -19z m-7590 -40 c-3 -8 -6 -5 -6 6 -1 11 2 17 5 13 3
-3 4 -12 1 -19z m7580 0 c-3 -8 -6 -5 -6 6 -1 11 2 17 5 13 3 -3 4 -12 1 -19z
m-3660 -70 c-2 -13 -4 -3 -4 22 0 25 2 35 4 23 2 -13 2 -33 0 -45z m3470 40
c-3 -8 -6 -5 -6 6 -1 11 2 17 5 13 3 -3 4 -12 1 -19z m-7403 -32 c-3 -21 -8
-35 -11 -32 -2 2 -1 20 3 40 3 21 8 35 11 32 2 -2 1 -20 -3 -40z m3763 -18
c-2 -13 -4 -3 -4 22 0 25 2 35 4 23 2 -13 2 -33 0 -45z m3818 22 c-9 -41 -17
-33 -9 9 4 17 9 30 11 27 3 -2 2 -19 -2 -36z m-214 -115 c-16 -60 -30 -104
-30 -97 -1 19 52 228 56 217 1 -6 -11 -59 -26 -120z m-6454 -212 c-1 -54 -3
-10 -3 97 0 107 2 151 3 98 2 -54 2 -142 0 -195z m6650 265 c-3 -8 -6 -5 -6 6
-1 11 2 17 5 13 3 -3 4 -12 1 -19z m-7583 -37 c-4 -23 -9 -40 -11 -37 -3 3 -2
23 2 46 4 23 9 39 11 37 3 -2 2 -23 -2 -46z m3943 -13 c-2 -13 -4 -3 -4 22 0
25 2 35 4 23 2 -13 2 -33 0 -45z m-170 -30 c-2 -13 -4 -3 -4 22 0 25 2 35 4
23 2 -13 2 -33 0 -45z m3797 13 c-4 -23 -9 -40 -11 -37 -3 3 -2 23 2 46 4 23
9 39 11 37 3 -2 2 -23 -2 -46z m-7594 -101 c-8 -48 -9 -75 -2 -83 6 -7 51 -32
101 -56 50 -25 89 -47 87 -49 -9 -9 -206 101 -206 115 0 28 23 153 28 149 2
-3 -1 -37 -8 -76z m3957 -12 c-2 -18 -4 -4 -4 32 0 36 2 50 4 33 2 -18 2 -48
0 -65z m-170 10 c-2 -13 -4 -5 -4 17 -1 22 1 32 4 23 2 -10 2 -28 0 -40z
m3779 -33 c-8 -38 -15 -61 -15 -49 -1 27 22 141 26 129 1 -6 -3 -41 -11 -80z
m-189 3 c-3 -7 -5 -2 -5 12 0 14 2 19 5 13 2 -7 2 -19 0 -25z m-3600 -75 c-2
-16 -4 -5 -4 22 0 28 2 40 4 28 2 -13 2 -35 0 -50z m3587 8 c-4 -23 -9 -40
-11 -37 -3 3 -2 23 2 46 4 23 9 39 11 37 3 -2 2 -23 -2 -46z m-3417 -28 c-2
-16 -4 -5 -4 22 0 28 2 40 4 28 2 -13 2 -35 0 -50z m3597 -52 c-4 -34 -9 -60
-11 -57 -3 3 -2 32 2 66 4 34 9 59 12 57 2 -3 1 -33 -3 -66z m-3777 -38 c-2
-16 -4 -5 -4 22 0 28 2 40 4 28 2 -13 2 -35 0 -50z m3580 35 c-3 -7 -5 -2 -5
12 0 14 2 19 5 13 2 -7 2 -19 0 -25z m-3410 -85 c-2 -21 -4 -6 -4 32 0 39 2
55 4 38 2 -18 2 -50 0 -70z m-3622 29 c50 -22 155 -64 233 -93 78 -29 140 -54
138 -56 -8 -8 -370 132 -445 173 -58 32 -40 26 74 -24z m7022 1 c-3 -10 -5 -4
-5 12 0 17 2 24 5 18 2 -7 2 -21 0 -30z m1603 12 c-14 -8 -29 -14 -35 -14 -5
0 1 6 15 14 14 8 30 14 35 14 6 0 -1 -6 -15 -14z m-7944 -261 c14 -4 23 -8 21
-11 -3 -2 -16 -1 -31 3 l-26 6 2 127 2 126 3 -122 c4 -122 4 -123 29 -129z
m7884 236 c-8 -5 -19 -10 -25 -10 -5 0 -3 5 5 10 8 5 20 10 25 10 6 0 3 -5 -5
-10z m-5123 -82 c-2 -18 -4 -6 -4 27 0 33 2 48 4 33 2 -15 2 -42 0 -60z m3770
15 c-2 -16 -4 -5 -4 22 0 28 2 40 4 28 2 -13 2 -35 0 -50z m-200 10 c-3 -10
-5 -2 -5 17 0 19 2 27 5 18 2 -10 2 -26 0 -35z m1512 42 c-9 -8 -191 -76 -195
-72 -2 2 38 20 89 40 88 34 116 43 106 32z m-4912 -162 c-2 -21 -4 -4 -4 37 0
41 2 58 4 38 2 -21 2 -55 0 -75z m3390 45 c-2 -13 -4 -5 -4 17 -1 22 1 32 4
23 2 -10 2 -28 0 -40z m1313 38 c0 -6 -123 -47 -127 -42 -2 2 22 13 54 24 62
22 73 24 73 18z m-1113 -73 c-2 -16 -4 -5 -4 22 0 28 2 40 4 28 2 -13 2 -35 0
-50z m-3770 -55 c-2 -18 -4 -6 -4 27 0 33 2 48 4 33 2 -15 2 -42 0 -60z
m-2982 62 c8 -13 -5 -13 -25 0 -13 8 -13 10 2 10 9 0 20 -4 23 -10z m6542 -97
c-2 -21 -4 -6 -4 32 0 39 2 55 4 38 2 -18 2 -50 0 -70z m968 42 c-55 -19 -107
-34 -115 -33 -8 0 30 15 85 33 55 18 107 33 115 33 8 0 -30 -15 -85 -33z
m-768 -118 c-2 -23 -3 -1 -3 48 0 50 1 68 3 42 2 -26 2 -67 0 -90z m-3590 -74
c-2 -32 -3 -6 -3 57 0 63 1 89 3 58 2 -32 2 -84 0 -115z m4155 132 c-69 -22
-150 -41 -127 -30 20 10 171 53 185 53 8 0 -18 -11 -58 -23z m-6897 -16 c14
-6 9 -7 -15 -3 -19 4 -44 11 -55 15 -14 6 -9 7 15 3 19 -4 44 -11 55 -15z
m2562 -61 c-2 -18 -4 -6 -4 27 0 33 2 48 4 33 2 -15 2 -42 0 -60z m-2462 32
c33 -11 44 -17 25 -13 -38 6 -111 31 -95 32 6 0 37 -8 70 -19z m6654 6 c-6 -7
-166 -46 -181 -45 -7 0 25 11 72 24 83 23 117 29 109 21z m-629 -86 l0 -70
-27 1 c-24 2 -25 2 -5 6 20 4 22 10 22 69 0 35 2 64 5 64 3 0 5 -31 5 -70z
m-5933 54 c-3 -3 -12 -4 -19 -1 -8 3 -5 6 6 6 11 1 17 -2 13 -5z m163 -38 c74
-19 129 -34 122 -35 -17 -1 -272 59 -272 65 0 6 8 5 150 -30z m6197 18 c-3 -3
-12 -4 -19 -1 -8 3 -5 6 6 6 11 1 17 -2 13 -5z m-40 -10 c-3 -3 -12 -4 -19 -1
-8 3 -5 6 6 6 11 1 17 -2 13 -5z m-40 -10 c-3 -3 -12 -4 -19 -1 -8 3 -5 6 6 6
11 1 17 -2 13 -5z m-3920 -146 c-2 -29 -3 -8 -3 47 0 55 1 79 3 53 2 -26 2
-71 0 -100z m3863 132 c-14 -4 -36 -8 -50 -8 -22 0 -22 1 5 8 17 4 39 8 50 8
16 0 15 -2 -5 -8z m-85 -10 c3 -5 1 -10 -4 -10 -6 0 -11 5 -11 10 0 6 2 10 4
10 3 0 8 -4 11 -10z m-5808 -16 c-3 -3 -12 -4 -19 -1 -8 3 -5 6 6 6 11 1 17
-2 13 -5z m143 -29 c42 -11 46 -13 15 -9 -22 3 -65 11 -95 19 -42 11 -46 13
-15 9 22 -3 65 -11 95 -19z m93 -22 c-7 -2 -19 -2 -25 0 -7 3 -2 5 12 5 14 0
19 -2 13 -5z m5287 -3 c-14 -4 -36 -8 -50 -8 -22 0 -22 1 5 8 17 4 39 8 50 8
16 0 15 -2 -5 -8z m-5237 -7 c-7 -2 -19 -2 -25 0 -7 3 -2 5 12 5 14 0 19 -2
13 -5z m112 -17 c33 -8 51 -14 40 -15 -11 0 -47 6 -80 13 -33 8 -51 14 -40 15
11 0 47 -6 80 -13z m5038 7 c-7 -2 -19 -2 -25 0 -7 3 -2 5 12 5 14 0 19 -2 13
-5z m-68 -13 c-16 -4 -41 -8 -55 -8 -22 0 -22 1 5 8 17 4 41 8 55 8 22 0 22
-1 -5 -8z m-4750 -35 c72 -12 121 -23 111 -24 -23 -1 -259 38 -265 45 -7 7 20
4 154 -21z m4658 18 c-7 -2 -19 -2 -25 0 -7 3 -2 5 12 5 14 0 19 -2 13 -5z
m-2875 -186 l187 -2 -192 -3 -193 -2 2 98 2 97 3 -92 4 -93 187 -3z m2820 176
c-10 -2 -26 -2 -35 0 -10 3 -2 5 17 5 19 0 27 -2 18 -5z m-83 -13 c-16 -4 -43
-8 -60 -8 -29 1 -29 1 5 8 19 4 46 7 60 8 22 0 22 -1 -5 -8z m-107 -17 c-10
-2 -26 -2 -35 0 -10 3 -2 5 17 5 19 0 27 -2 18 -5z m-4193 -12 c26 -6 31 -9
15 -9 -14 -1 -43 3 -65 7 -26 6 -31 9 -15 9 14 1 43 -3 65 -7z m4060 -6 c-44
-8 -93 -13 -110 -13 -40 1 110 25 155 26 19 0 -1 -6 -45 -13z m-3957 -12 c-10
-2 -28 -2 -40 0 -13 2 -5 4 17 4 22 1 32 -1 23 -4z m127 -12 c35 -8 36 -9 10
-9 -16 0 -50 3 -75 7 -42 8 -43 9 -10 9 19 1 53 -3 75 -7z m3673 2 c-10 -2
-28 -2 -40 0 -13 2 -5 4 17 4 22 1 32 -1 23 -4z m-118 -13 c-30 -5 -71 -8 -90
-8 -31 1 -30 2 10 8 25 4 65 7 90 7 44 0 44 0 -10 -7z m-3452 -7 c-10 -2 -28
-2 -40 0 -13 2 -5 4 17 4 22 1 32 -1 23 -4z m85 -10 c-13 -2 -33 -2 -45 0 -13
2 -3 4 22 4 25 0 35 -2 23 -4z m3220 0 c-13 -2 -33 -2 -45 0 -13 2 -3 4 22 4
25 0 35 -2 23 -4z m-3115 -10 c-16 -2 -40 -2 -55 0 -16 2 -3 4 27 4 30 0 43
-2 28 -4z m659 -45 c-2 -13 -4 -5 -4 17 -1 22 1 32 4 23 2 -10 2 -28 0 -40z
m2351 45 c-16 -2 -40 -2 -55 0 -16 2 -3 4 27 4 30 0 43 -2 28 -4z m-2905 -10
c-13 -2 -33 -2 -45 0 -13 2 -3 4 22 4 25 0 35 -2 23 -4z m2795 0 c-16 -2 -40
-2 -55 0 -16 2 -3 4 27 4 30 0 43 -2 28 -4z m-2680 -10 c-16 -2 -40 -2 -55 0
-16 2 -3 4 27 4 30 0 43 -2 28 -4z m2571 3 c-2 -2 -56 -6 -119 -8 -64 -3 -91
-2 -60 2 62 8 186 12 179 6z m-2436 -13 c-18 -2 -48 -2 -65 0 -18 2 -4 4 32 4
36 0 50 -2 33 -4z m150 -10 c-18 -2 -48 -2 -65 0 -18 2 -4 4 32 4 36 0 50 -2
33 -4z m1897 -3 c0 -6 -33 -9 -82 -8 l-83 2 80 6 c44 3 81 7 83 8 1 1 2 -2 2
-8z m103 3 c-18 -2 -48 -2 -65 0 -18 2 -4 4 32 4 36 0 50 -2 33 -4z m-1880
-10 c-13 -2 -35 -2 -50 0 -16 2 -5 4 22 4 28 0 40 -2 28 -4z m1555 -10 c-32
-2 -86 -2 -120 0 -35 2 -9 3 57 3 66 0 94 -1 63 -3z m-280 -10 c-54 -2 -142
-2 -195 0 -54 1 -10 3 97 3 107 0 151 -2 98 -3z m-505 -10 c-24 -2 -62 -2 -85
0 -24 2 -5 4 42 4 47 0 66 -2 43 -4z"/>
<path d="M4478 10911 c-83 -72 -67 -248 24 -280 79 -28 158 45 158 146 0 93
-39 151 -107 160 -34 4 -45 1 -75 -26z"/>
<path d="M5321 10913 c-17 -16 -33 -40 -37 -55 l-6 -28 110 0 111 0 -10 33
c-21 76 -111 103 -168 50z"/>
<path d="M3505 10705 c-83 -23 -108 -77 -53 -118 34 -25 85 -17 122 20 20 20
26 36 26 69 0 50 -7 53 -95 29z"/>
<path d="M5178 8423 c7 -3 16 -2 19 1 4 3 -2 6 -13 5 -11 0 -14 -3 -6 -6z"/>
</g>
</svg>
